<svg xmlns="http://www.w3.org/2000/svg" width="38.293" height="42.213" viewBox="0 0 38.293 42.213">
  <path id="Path_719" data-name="Path 719" d="M136.465,5.6h-17.24a2.787,2.787,0,0,0-2.787,2.787v8.344a22.6,22.6,0,0,0-4.371,1.434,37.009,37.009,0,0,0-3.536,1.781,8.826,8.826,0,0,0-4.354,6.2l-2.95,17a1.071,1.071,0,0,0,2.111.364l2.95-17.013A6.7,6.7,0,0,1,109.6,21.81a34.87,34.87,0,0,1,3.322-1.653,21.182,21.182,0,0,1,3.519-1.2V26.1a7.136,7.136,0,0,0-.775-.257,1.072,1.072,0,1,0-.569,2.068,4.21,4.21,0,0,1,1.545.753,9.06,9.06,0,0,1-2.5,2.569A1.077,1.077,0,1,0,115.359,33a11.2,11.2,0,0,0,3.16-3.3L122,24.2h0a1.889,1.889,0,0,1,3.2,2.012l-2.6,4.217a10.014,10.014,0,0,0-1.511,5.6,7.868,7.868,0,0,1-3.425,6.747l-.283.2h0a9.979,9.979,0,0,0-2.826,2.941,1.075,1.075,0,0,0,1.824,1.139A7.859,7.859,0,0,1,118.6,44.74l.283-.2a10.012,10.012,0,0,0,3.583-4.435l.261.265h0a3.382,3.382,0,0,0,5.638-1.379,3.279,3.279,0,0,0,3.815-4.281l-.051-.15h4.337a2.788,2.788,0,0,0,2.787-2.787V8.388A2.787,2.787,0,0,0,136.465,5.6ZM127.046,27.35h0a4.029,4.029,0,0,0-6.816-4.289L118.6,25.629V8.388a.646.646,0,0,1,.629-.646h12.587V32.414H123.96a7.873,7.873,0,0,1,.458-.856Zm-1.117,11.61a1.241,1.241,0,0,1-1.674-.094l-1.135-1.156a10.126,10.126,0,0,0,.107-1.743,7.931,7.931,0,0,1,.09-1.413h1.195a.086.086,0,0,0,.03.064l1.67,2.714a1.25,1.25,0,0,1-.283,1.627Zm4.238-3.545a1.139,1.139,0,0,1-2.038.98c-.034-.06-.064-.12-.1-.18l-1.015-1.653h2.847Zm6.94-3.647h0a.647.647,0,0,1-.647.647h-2.509V7.742h2.513a.646.646,0,0,1,.647.646Z" transform="translate(-101.085 -5.476)" stroke="#000" stroke-width="0.25"/>
</svg>
