<svg xmlns="http://www.w3.org/2000/svg" width="35.632" height="35.45" viewBox="0 0 35.632 35.45">
  <path id="Path_532" data-name="Path 532" d="M137.162,54.142h-.825v-3.3a4.128,4.128,0,0,0-4.123-4.123h-1.171l-4.358-7.627a4.123,4.123,0,0,0-6.295-1.056l-9.927,8.683h-1.338A4.128,4.128,0,0,0,105,50.843V67.334a4.128,4.128,0,0,0,4.123,4.123h23.088a4.128,4.128,0,0,0,4.123-4.123v-.825h0a.825.825,0,1,0-1.649,0v.825h0a2.473,2.473,0,0,1-2.474,2.474H109.127a2.474,2.474,0,0,1-2.474-2.474V50.843a2.474,2.474,0,0,1,2.474-2.474h23.088a2.473,2.473,0,0,1,2.474,2.474v3.3h-2.474a4.128,4.128,0,0,0-4.123,4.123v1.649a4.128,4.128,0,0,0,4.123,4.123h4.947a2.474,2.474,0,0,0,2.474-2.474V56.615a2.473,2.473,0,0,0-2.474-2.474ZM112.97,46.721l8.5-7.442a2.474,2.474,0,0,1,3.777.634l3.89,6.808Zm25.017,14.842a.824.824,0,0,1-.825.824h-4.947a2.473,2.473,0,0,1-2.474-2.474V58.264a2.473,2.473,0,0,1,2.474-2.474h4.947a.825.825,0,0,1,.825.825Z" transform="translate(-104.504 -36.507)" stroke="#000" stroke-width="1"/>
</svg>
